<?xml version="1.0" encoding="utf-8"?>
<!-- Generator: Adobe Illustrator 23.1.0, SVG Export Plug-In . SVG Version: 6.00 Build 0)  -->
<svg version="1.1" id="_x30_" xmlns="http://www.w3.org/2000/svg" xmlns:xlink="http://www.w3.org/1999/xlink" x="0px" y="0px"
	 viewBox="0 0 112 16" style="enable-background:new 0 0 112 16;" xml:space="preserve">
<style type="text/css">
	.st0{fill:#111111;}
</style>
<path id="_x39_" class="st0" d="M7.2,9C6.8,8.3,6.1,7.6,5.1,7C4.3,6.5,3.8,6,3.5,5.6C3.2,5.2,3,4.8,3,4.3c0-0.5,0.1-1,0.4-1.3
	C3.6,2.7,4,2.5,4.5,2.5c0.4,0,0.8,0.1,1.2,0.2c0.4,0.2,0.7,0.3,1.1,0.5l1-2.3C6.6,0.3,5.5,0,4.3,0C3,0,2,0.4,1.3,1.1
	C0.5,1.9,0.1,3,0.1,4.3c0,0.7,0.1,1.3,0.3,1.8c0.2,0.5,0.5,1,0.8,1.4C1.6,8,2.1,8.4,2.7,8.9c0.8,0.5,1.3,1,1.7,1.4
	c0.3,0.4,0.5,0.9,0.5,1.4c0,0.5-0.1,0.9-0.4,1.2c-0.3,0.3-0.7,0.5-1.3,0.5c-1,0-2.1-0.4-3.2-1.1v2.9C1,15.7,2.1,16,3.5,16
	c1.4,0,2.5-0.4,3.2-1.2c0.7-0.8,1.1-1.9,1.1-3.3C7.8,10.6,7.6,9.7,7.2,9z"/>
<path id="_x38_" class="st0" d="M13.7,0h-4v16h2.9v-5.8h0.7c1.6,0,2.8-0.5,3.6-1.4c0.8-0.9,1.3-2.2,1.3-3.9C18.3,1.7,16.8,0,13.7,0
	L13.7,0z M12.7,2.6h0.7c0.7,0,1.2,0.2,1.5,0.6s0.5,1,0.5,1.9c0,0.9-0.2,1.6-0.5,2c-0.4,0.4-0.9,0.6-1.6,0.6h-0.6V2.6z"/>
<path id="_x37_" class="st0" d="M30.2,16L26.3,0h-4l-3.9,16h2.9l0.9-4h4.1l0.9,4H30.2z M22.8,9.3c0.6-2.7,1-4.4,1.1-5.2
	c0.1-0.8,0.3-1.4,0.4-2.1c0,0.3,0.1,0.9,0.3,1.8c0.2,0.9,0.3,1.5,0.3,1.7l0.8,3.7H22.8z"/>
<path id="_x36_" class="st0" d="M43.7,0v10.4c0,0.9-0.2,1.7-0.5,2.2c-0.3,0.5-0.8,0.8-1.4,0.8c-1.3,0-2-1-2-3V0h-2.9v10.2
	c0,1.9,0.4,3.4,1.2,4.4c0.8,1,2,1.5,3.6,1.5c1.6,0,2.8-0.5,3.7-1.5c0.8-1,1.3-2.4,1.3-4.3V0H43.7z"/>
<path id="_x35_" class="st0" d="M52.6,16V0h-2.7v16H52.6z"/>
<path id="_x34_" class="st0" d="M69.5,2.1c-1-1.4-2.4-2.1-4.3-2.1h-4.2V16h3.8c2,0,3.5-0.7,4.6-2.1c1.1-1.4,1.6-3.4,1.6-6
	C71.1,5.4,70.5,3.5,69.5,2.1z M67.3,12c-0.5,0.9-1.3,1.4-2.4,1.4H64V2.6h1.2c1.9,0,2.9,1.8,2.9,5.3C68.1,9.8,67.8,11.1,67.3,12z"/>
<path id="_x33_" class="st0" d="M80.7,13.4h-4.2V8.9h3.9V6.4h-3.9V2.5h4.2V0h-7.1v16h7.1V13.4z"/>
<path id="_x32_" class="st0" d="M91.8,16l3-13.6h0.1c-0.1,0.9-0.2,1.9-0.2,2.7V16h2.8V0.1h-4.5l-2.7,12.5h-0.1L87.5,0.1H83V16h2.7
	V5.3c0-0.9-0.1-1.8-0.2-2.9h0.1l3,13.6H91.8z"/>
<path id="_x31_" class="st0" d="M109.6,2c-1-1.4-2.4-2.1-4.2-2.1c-1.8,0-3.2,0.7-4.2,2.1c-1,1.4-1.5,3.3-1.5,5.9
	c0,2.6,0.5,4.6,1.5,6c1,1.4,2.4,2.1,4.2,2.1c1.8,0,3.2-0.7,4.2-2.1c1-1.4,1.5-3.4,1.5-5.9S110.5,3.4,109.6,2z M103.4,3.9
	c0.5-0.9,1.1-1.4,2-1.4c1.7,0,2.6,1.8,2.6,5.4c0,3.6-0.9,5.4-2.6,5.4c-0.9,0-1.5-0.5-2-1.4c-0.5-0.9-0.7-2.3-0.7-4.1
	C102.7,6.2,102.9,4.8,103.4,3.9z"/>
</svg>
